<?xml version="1.0" encoding="UTF-8" standalone="no"?>
<!DOCTYPE svg PUBLIC "-//W3C//DTD SVG 1.1//EN"
 "http://www.w3.org/Graphics/SVG/1.1/DTD/svg11.dtd">
<!-- Generated by graphviz version 2.40.1 (20161225.0304)
 -->
<!-- Title: controllers_diagram Pages: 1 -->
<svg width="738pt" height="687pt"
 viewBox="0.00 0.00 737.77 687.00" xmlns="http://www.w3.org/2000/svg" xmlns:xlink="http://www.w3.org/1999/xlink">
<g id="graph0" class="graph" transform="scale(1 1) rotate(0) translate(4 683)">
<title>controllers_diagram</title>
<polygon fill="transparent" stroke="transparent" points="-4,4 -4,-683 733.7725,-683 733.7725,4 -4,4"/>
<!-- _diagram_info -->
<g id="node1" class="node">
<title>_diagram_info</title>
<text text-anchor="start" x="296" y="-90.6" font-family="Times,serif" font-size="13.00" fill="#000000">Controllers diagram</text>
<text text-anchor="start" x="296" y="-77.6" font-family="Times,serif" font-size="13.00" fill="#000000">Date: Nov 29 2017 &#45; 00:14</text>
<text text-anchor="start" x="296" y="-64.6" font-family="Times,serif" font-size="13.00" fill="#000000">Migration version: 20171128235740</text>
<text text-anchor="start" x="296" y="-51.6" font-family="Times,serif" font-size="13.00" fill="#000000">Generated by RailRoady 1.5.3</text>
<text text-anchor="start" x="296" y="-38.6" font-family="Times,serif" font-size="13.00" fill="#000000">http://railroady.prestonlee.com</text>
</g>
<!-- AppSecurityController -->
<g id="node2" class="node">
<title>AppSecurityController</title>
<path fill="none" stroke="#000000" d="M220,-336.5C220,-336.5 340.3105,-336.5 340.3105,-336.5 346.3105,-336.5 352.3105,-342.5 352.3105,-348.5 352.3105,-348.5 352.3105,-456.5 352.3105,-456.5 352.3105,-462.5 346.3105,-468.5 340.3105,-468.5 340.3105,-468.5 220,-468.5 220,-468.5 214,-468.5 208,-462.5 208,-456.5 208,-456.5 208,-348.5 208,-348.5 208,-342.5 214,-336.5 220,-336.5"/>
<text text-anchor="middle" x="280.1553" y="-453.3" font-family="Times,serif" font-size="14.00" fill="#000000">AppSecurityController</text>
<polyline fill="none" stroke="#000000" points="208,-446.5 352.3105,-446.5 "/>
<text text-anchor="start" x="216" y="-431.3" font-family="Times,serif" font-size="14.00" fill="#000000">authenticate</text>
<text text-anchor="start" x="216" y="-417.3" font-family="Times,serif" font-size="14.00" fill="#000000">logout</text>
<text text-anchor="start" x="216" y="-403.3" font-family="Times,serif" font-size="14.00" fill="#000000">pass_check</text>
<text text-anchor="start" x="216" y="-389.3" font-family="Times,serif" font-size="14.00" fill="#000000">show</text>
<polyline fill="none" stroke="#000000" points="208,-382.5 352.3105,-382.5 "/>
<polyline fill="none" stroke="#000000" points="208,-358.5 352.3105,-358.5 "/>
<text text-anchor="start" x="216" y="-343.3" font-family="Times,serif" font-size="14.00" fill="#000000">_layout</text>
</g>
<!-- ApplicationController -->
<g id="node3" class="node">
<title>ApplicationController</title>
<path fill="none" stroke="#000000" d="M44,-496.5C44,-496.5 189.1455,-496.5 189.1455,-496.5 195.1455,-496.5 201.1455,-502.5 201.1455,-508.5 201.1455,-508.5 201.1455,-574.5 201.1455,-574.5 201.1455,-580.5 195.1455,-586.5 189.1455,-586.5 189.1455,-586.5 44,-586.5 44,-586.5 38,-586.5 32,-580.5 32,-574.5 32,-574.5 32,-508.5 32,-508.5 32,-502.5 38,-496.5 44,-496.5"/>
<text text-anchor="middle" x="116.5728" y="-571.3" font-family="Times,serif" font-size="14.00" fill="#000000">ApplicationController</text>
<polyline fill="none" stroke="#000000" points="32,-564.5 201.1455,-564.5 "/>
<polyline fill="none" stroke="#000000" points="32,-540.5 201.1455,-540.5 "/>
<text text-anchor="start" x="40" y="-525.3" font-family="Times,serif" font-size="14.00" fill="#000000">devise_parameter_sanitizer</text>
<polyline fill="none" stroke="#000000" points="32,-518.5 201.1455,-518.5 "/>
<text text-anchor="start" x="40" y="-503.3" font-family="Times,serif" font-size="14.00" fill="#000000">_layout</text>
</g>
<!-- HistoryEntriesController -->
<g id="node4" class="node">
<title>HistoryEntriesController</title>
<path fill="none" stroke="#000000" d="M28,-352.5C28,-352.5 159.2002,-352.5 159.2002,-352.5 165.2002,-352.5 171.2002,-358.5 171.2002,-364.5 171.2002,-364.5 171.2002,-444.5 171.2002,-444.5 171.2002,-450.5 165.2002,-456.5 159.2002,-456.5 159.2002,-456.5 28,-456.5 28,-456.5 22,-456.5 16,-450.5 16,-444.5 16,-444.5 16,-364.5 16,-364.5 16,-358.5 22,-352.5 28,-352.5"/>
<text text-anchor="middle" x="93.6001" y="-441.3" font-family="Times,serif" font-size="14.00" fill="#000000">HistoryEntriesController</text>
<polyline fill="none" stroke="#000000" points="16,-434.5 171.2002,-434.5 "/>
<text text-anchor="start" x="24" y="-419.3" font-family="Times,serif" font-size="14.00" fill="#000000">get_report</text>
<text text-anchor="start" x="24" y="-405.3" font-family="Times,serif" font-size="14.00" fill="#000000">show</text>
<polyline fill="none" stroke="#000000" points="16,-398.5 171.2002,-398.5 "/>
<polyline fill="none" stroke="#000000" points="16,-374.5 171.2002,-374.5 "/>
<text text-anchor="start" x="24" y="-359.3" font-family="Times,serif" font-size="14.00" fill="#000000">_layout</text>
</g>
<!-- StudentRequestsController -->
<g id="node5" class="node">
<title>StudentRequestsController</title>
<path fill="none" stroke="#000000" d="M204,-144.5C204,-144.5 346.876,-144.5 346.876,-144.5 352.876,-144.5 358.876,-150.5 358.876,-156.5 358.876,-156.5 358.876,-292.5 358.876,-292.5 358.876,-298.5 352.876,-304.5 346.876,-304.5 346.876,-304.5 204,-304.5 204,-304.5 198,-304.5 192,-298.5 192,-292.5 192,-292.5 192,-156.5 192,-156.5 192,-150.5 198,-144.5 204,-144.5"/>
<text text-anchor="middle" x="275.438" y="-289.3" font-family="Times,serif" font-size="14.00" fill="#000000">StudentRequestsController</text>
<polyline fill="none" stroke="#000000" points="192,-282.5 358.876,-282.5 "/>
<text text-anchor="start" x="200" y="-267.3" font-family="Times,serif" font-size="14.00" fill="#000000">activate_session</text>
<text text-anchor="start" x="200" y="-253.3" font-family="Times,serif" font-size="14.00" fill="#000000">confirm</text>
<text text-anchor="start" x="200" y="-239.3" font-family="Times,serif" font-size="14.00" fill="#000000">destroy</text>
<text text-anchor="start" x="200" y="-225.3" font-family="Times,serif" font-size="14.00" fill="#000000">finish_session</text>
<text text-anchor="start" x="200" y="-211.3" font-family="Times,serif" font-size="14.00" fill="#000000">index</text>
<text text-anchor="start" x="200" y="-197.3" font-family="Times,serif" font-size="14.00" fill="#000000">wait_time</text>
<polyline fill="none" stroke="#000000" points="192,-190.5 358.876,-190.5 "/>
<polyline fill="none" stroke="#000000" points="192,-166.5 358.876,-166.5 "/>
<text text-anchor="start" x="200" y="-151.3" font-family="Times,serif" font-size="14.00" fill="#000000">_layout</text>
</g>
<!-- StudentsController -->
<g id="node6" class="node">
<title>StudentsController</title>
<path fill="none" stroke="#000000" d="M620,-560.5C620,-560.5 717.7725,-560.5 717.7725,-560.5 723.7725,-560.5 729.7725,-566.5 729.7725,-572.5 729.7725,-572.5 729.7725,-666.5 729.7725,-666.5 729.7725,-672.5 723.7725,-678.5 717.7725,-678.5 717.7725,-678.5 620,-678.5 620,-678.5 614,-678.5 608,-672.5 608,-666.5 608,-666.5 608,-572.5 608,-572.5 608,-566.5 614,-560.5 620,-560.5"/>
<text text-anchor="middle" x="668.8862" y="-663.3" font-family="Times,serif" font-size="14.00" fill="#000000">StudentsController</text>
<polyline fill="none" stroke="#000000" points="608,-656.5 729.7725,-656.5 "/>
<text text-anchor="start" x="616" y="-641.3" font-family="Times,serif" font-size="14.00" fill="#000000">create</text>
<text text-anchor="start" x="616" y="-627.3" font-family="Times,serif" font-size="14.00" fill="#000000">index</text>
<text text-anchor="start" x="616" y="-613.3" font-family="Times,serif" font-size="14.00" fill="#000000">new</text>
<polyline fill="none" stroke="#000000" points="608,-606.5 729.7725,-606.5 "/>
<polyline fill="none" stroke="#000000" points="608,-582.5 729.7725,-582.5 "/>
<text text-anchor="start" x="616" y="-567.3" font-family="Times,serif" font-size="14.00" fill="#000000">_layout</text>
</g>
<!-- Tutor::ConfirmationsController -->
<g id="node7" class="node">
<title>Tutor::ConfirmationsController</title>
<path fill="none" stroke="#000000" d="M396,-272.5C396,-272.5 564.0596,-272.5 564.0596,-272.5 570.0596,-272.5 576.0596,-278.5 576.0596,-284.5 576.0596,-284.5 576.0596,-352.5 576.0596,-352.5 576.0596,-358.5 570.0596,-364.5 564.0596,-364.5 564.0596,-364.5 396,-364.5 396,-364.5 390,-364.5 384,-358.5 384,-352.5 384,-352.5 384,-284.5 384,-284.5 384,-278.5 390,-272.5 396,-272.5"/>
<text text-anchor="middle" x="480.0298" y="-349.3" font-family="Times,serif" font-size="14.00" fill="#000000">Tutor::ConfirmationsController</text>
<polyline fill="none" stroke="#000000" points="384,-342.5 576.0596,-342.5 "/>
<polyline fill="none" stroke="#000000" points="384,-318.5 576.0596,-318.5 "/>
<polyline fill="none" stroke="#000000" points="384,-294.5 576.0596,-294.5 "/>
<text text-anchor="start" x="392" y="-279.3" font-family="Times,serif" font-size="14.00" fill="#000000">_layout</text>
</g>
<!-- Tutor::OmniauthCallbacksController -->
<g id="node8" class="node">
<title>Tutor::OmniauthCallbacksController</title>
<path fill="none" stroke="#000000" d="M396,-144.5C396,-144.5 595.1426,-144.5 595.1426,-144.5 601.1426,-144.5 607.1426,-150.5 607.1426,-156.5 607.1426,-156.5 607.1426,-224.5 607.1426,-224.5 607.1426,-230.5 601.1426,-236.5 595.1426,-236.5 595.1426,-236.5 396,-236.5 396,-236.5 390,-236.5 384,-230.5 384,-224.5 384,-224.5 384,-156.5 384,-156.5 384,-150.5 390,-144.5 396,-144.5"/>
<text text-anchor="middle" x="495.5713" y="-221.3" font-family="Times,serif" font-size="14.00" fill="#000000">Tutor::OmniauthCallbacksController</text>
<polyline fill="none" stroke="#000000" points="384,-214.5 607.1426,-214.5 "/>
<polyline fill="none" stroke="#000000" points="384,-190.5 607.1426,-190.5 "/>
<polyline fill="none" stroke="#000000" points="384,-166.5 607.1426,-166.5 "/>
<text text-anchor="start" x="392" y="-151.3" font-family="Times,serif" font-size="14.00" fill="#000000">_layout</text>
</g>
<!-- Tutor::PasswordsController -->
<g id="node9" class="node">
<title>Tutor::PasswordsController</title>
<path fill="none" stroke="#000000" d="M252,-496.5C252,-496.5 399.0596,-496.5 399.0596,-496.5 405.0596,-496.5 411.0596,-502.5 411.0596,-508.5 411.0596,-508.5 411.0596,-576.5 411.0596,-576.5 411.0596,-582.5 405.0596,-588.5 399.0596,-588.5 399.0596,-588.5 252,-588.5 252,-588.5 246,-588.5 240,-582.5 240,-576.5 240,-576.5 240,-508.5 240,-508.5 240,-502.5 246,-496.5 252,-496.5"/>
<text text-anchor="middle" x="325.5298" y="-573.3" font-family="Times,serif" font-size="14.00" fill="#000000">Tutor::PasswordsController</text>
<polyline fill="none" stroke="#000000" points="240,-566.5 411.0596,-566.5 "/>
<polyline fill="none" stroke="#000000" points="240,-542.5 411.0596,-542.5 "/>
<polyline fill="none" stroke="#000000" points="240,-518.5 411.0596,-518.5 "/>
<text text-anchor="start" x="248" y="-503.3" font-family="Times,serif" font-size="14.00" fill="#000000">_layout</text>
</g>
<!-- Tutor::RegistrationsController -->
<g id="node10" class="node">
<title>Tutor::RegistrationsController</title>
<path fill="none" stroke="#000000" d="M76,-16.5C76,-16.5 237.8252,-16.5 237.8252,-16.5 243.8252,-16.5 249.8252,-22.5 249.8252,-28.5 249.8252,-28.5 249.8252,-96.5 249.8252,-96.5 249.8252,-102.5 243.8252,-108.5 237.8252,-108.5 237.8252,-108.5 76,-108.5 76,-108.5 70,-108.5 64,-102.5 64,-96.5 64,-96.5 64,-28.5 64,-28.5 64,-22.5 70,-16.5 76,-16.5"/>
<text text-anchor="middle" x="156.9126" y="-93.3" font-family="Times,serif" font-size="14.00" fill="#000000">Tutor::RegistrationsController</text>
<polyline fill="none" stroke="#000000" points="64,-86.5 249.8252,-86.5 "/>
<polyline fill="none" stroke="#000000" points="64,-62.5 249.8252,-62.5 "/>
<polyline fill="none" stroke="#000000" points="64,-38.5 249.8252,-38.5 "/>
<text text-anchor="start" x="72" y="-23.3" font-family="Times,serif" font-size="14.00" fill="#000000">_layout</text>
</g>
<!-- Tutor::SessionsController -->
<g id="node11" class="node">
<title>Tutor::SessionsController</title>
<path fill="none" stroke="#000000" d="M540,-.5C540,-.5 680.5313,-.5 680.5313,-.5 686.5313,-.5 692.5313,-6.5 692.5313,-12.5 692.5313,-12.5 692.5313,-92.5 692.5313,-92.5 692.5313,-98.5 686.5313,-104.5 680.5313,-104.5 680.5313,-104.5 540,-104.5 540,-104.5 534,-104.5 528,-98.5 528,-92.5 528,-92.5 528,-12.5 528,-12.5 528,-6.5 534,-.5 540,-.5"/>
<text text-anchor="middle" x="610.2656" y="-89.3" font-family="Times,serif" font-size="14.00" fill="#000000">Tutor::SessionsController</text>
<polyline fill="none" stroke="#000000" points="528,-82.5 692.5313,-82.5 "/>
<text text-anchor="start" x="536" y="-67.3" font-family="Times,serif" font-size="14.00" fill="#000000">configure_sign_in_params</text>
<text text-anchor="start" x="536" y="-53.3" font-family="Times,serif" font-size="14.00" fill="#000000">destroy</text>
<polyline fill="none" stroke="#000000" points="528,-46.5 692.5313,-46.5 "/>
<polyline fill="none" stroke="#000000" points="528,-22.5 692.5313,-22.5 "/>
<text text-anchor="start" x="536" y="-7.3" font-family="Times,serif" font-size="14.00" fill="#000000">_layout</text>
</g>
<!-- Tutor::UnlocksController -->
<g id="node12" class="node">
<title>Tutor::UnlocksController</title>
<path fill="none" stroke="#000000" d="M12,-224.5C12,-224.5 146.6045,-224.5 146.6045,-224.5 152.6045,-224.5 158.6045,-230.5 158.6045,-236.5 158.6045,-236.5 158.6045,-304.5 158.6045,-304.5 158.6045,-310.5 152.6045,-316.5 146.6045,-316.5 146.6045,-316.5 12,-316.5 12,-316.5 6,-316.5 0,-310.5 0,-304.5 0,-304.5 0,-236.5 0,-236.5 0,-230.5 6,-224.5 12,-224.5"/>
<text text-anchor="middle" x="79.3022" y="-301.3" font-family="Times,serif" font-size="14.00" fill="#000000">Tutor::UnlocksController</text>
<polyline fill="none" stroke="#000000" points="0,-294.5 158.6045,-294.5 "/>
<polyline fill="none" stroke="#000000" points="0,-270.5 158.6045,-270.5 "/>
<polyline fill="none" stroke="#000000" points="0,-246.5 158.6045,-246.5 "/>
<text text-anchor="start" x="8" y="-231.3" font-family="Times,serif" font-size="14.00" fill="#000000">_layout</text>
</g>
<!-- TutorSecurityController -->
<g id="node13" class="node">
<title>TutorSecurityController</title>
<path fill="none" stroke="#000000" d="M460,-400.5C460,-400.5 586.8184,-400.5 586.8184,-400.5 592.8184,-400.5 598.8184,-406.5 598.8184,-412.5 598.8184,-412.5 598.8184,-520.5 598.8184,-520.5 598.8184,-526.5 592.8184,-532.5 586.8184,-532.5 586.8184,-532.5 460,-532.5 460,-532.5 454,-532.5 448,-526.5 448,-520.5 448,-520.5 448,-412.5 448,-412.5 448,-406.5 454,-400.5 460,-400.5"/>
<text text-anchor="middle" x="523.4092" y="-517.3" font-family="Times,serif" font-size="14.00" fill="#000000">TutorSecurityController</text>
<polyline fill="none" stroke="#000000" points="448,-510.5 598.8184,-510.5 "/>
<text text-anchor="start" x="456" y="-495.3" font-family="Times,serif" font-size="14.00" fill="#000000">authenticate</text>
<text text-anchor="start" x="456" y="-481.3" font-family="Times,serif" font-size="14.00" fill="#000000">logout</text>
<text text-anchor="start" x="456" y="-467.3" font-family="Times,serif" font-size="14.00" fill="#000000">pass_check</text>
<text text-anchor="start" x="456" y="-453.3" font-family="Times,serif" font-size="14.00" fill="#000000">show</text>
<polyline fill="none" stroke="#000000" points="448,-446.5 598.8184,-446.5 "/>
<polyline fill="none" stroke="#000000" points="448,-422.5 598.8184,-422.5 "/>
<text text-anchor="start" x="456" y="-407.3" font-family="Times,serif" font-size="14.00" fill="#000000">_layout</text>
</g>
<!-- TutorsController -->
<g id="node14" class="node">
<title>TutorsController</title>
<path fill="none" stroke="#000000" d="M476,-560.5C476,-560.5 561.6113,-560.5 561.6113,-560.5 567.6113,-560.5 573.6113,-566.5 573.6113,-572.5 573.6113,-572.5 573.6113,-666.5 573.6113,-666.5 573.6113,-672.5 567.6113,-678.5 561.6113,-678.5 561.6113,-678.5 476,-678.5 476,-678.5 470,-678.5 464,-672.5 464,-666.5 464,-666.5 464,-572.5 464,-572.5 464,-566.5 470,-560.5 476,-560.5"/>
<text text-anchor="middle" x="518.8057" y="-663.3" font-family="Times,serif" font-size="14.00" fill="#000000">TutorsController</text>
<polyline fill="none" stroke="#000000" points="464,-656.5 573.6113,-656.5 "/>
<text text-anchor="start" x="472" y="-641.3" font-family="Times,serif" font-size="14.00" fill="#000000">activate_session</text>
<text text-anchor="start" x="472" y="-627.3" font-family="Times,serif" font-size="14.00" fill="#000000">finish_session</text>
<text text-anchor="start" x="472" y="-613.3" font-family="Times,serif" font-size="14.00" fill="#000000">index</text>
<polyline fill="none" stroke="#000000" points="464,-606.5 573.6113,-606.5 "/>
<polyline fill="none" stroke="#000000" points="464,-582.5 573.6113,-582.5 "/>
<text text-anchor="start" x="472" y="-567.3" font-family="Times,serif" font-size="14.00" fill="#000000">_layout</text>
</g>
</g>
</svg>
