<?xml version="1.0" encoding="UTF-8" standalone="no"?>
<!DOCTYPE svg PUBLIC "-//W3C//DTD SVG 1.1//EN"
 "http://www.w3.org/Graphics/SVG/1.1/DTD/svg11.dtd">
<!-- Generated by graphviz version 2.40.1 (20161225.0304)
 -->
<!-- Title: models_diagram Pages: 1 -->
<svg width="806pt" height="470pt"
 viewBox="0.00 0.00 806.02 470.00" xmlns="http://www.w3.org/2000/svg" xmlns:xlink="http://www.w3.org/1999/xlink">
<g id="graph0" class="graph" transform="scale(1 1) rotate(0) translate(4 466)">
<title>models_diagram</title>
<polygon fill="transparent" stroke="transparent" points="-4,4 -4,-466 802.0171,-466 802.0171,4 -4,4"/>
<!-- _diagram_info -->
<g id="node1" class="node">
<title>_diagram_info</title>
<text text-anchor="start" x="8" y="-356.6" font-family="Times,serif" font-size="13.00" fill="#000000">Models diagram</text>
<text text-anchor="start" x="8" y="-343.6" font-family="Times,serif" font-size="13.00" fill="#000000">Date: Nov 29 2017 &#45; 00:14</text>
<text text-anchor="start" x="8" y="-330.6" font-family="Times,serif" font-size="13.00" fill="#000000">Migration version: 20171128235740</text>
<text text-anchor="start" x="8" y="-317.6" font-family="Times,serif" font-size="13.00" fill="#000000">Generated by RailRoady 1.5.3</text>
<text text-anchor="start" x="8" y="-304.6" font-family="Times,serif" font-size="13.00" fill="#000000">http://railroady.prestonlee.com</text>
</g>
<!-- HistoryEntry -->
<g id="node2" class="node">
<title>HistoryEntry</title>
<path fill="none" stroke="#000000" d="M288.0996,-.5C288.0996,-.5 408.7998,-.5 408.7998,-.5 414.7998,-.5 420.7998,-6.5 420.7998,-12.5 420.7998,-12.5 420.7998,-158.5 420.7998,-158.5 420.7998,-164.5 414.7998,-170.5 408.7998,-170.5 408.7998,-170.5 288.0996,-170.5 288.0996,-170.5 282.0996,-170.5 276.0996,-164.5 276.0996,-158.5 276.0996,-158.5 276.0996,-12.5 276.0996,-12.5 276.0996,-6.5 282.0996,-.5 288.0996,-.5"/>
<text text-anchor="middle" x="348.4497" y="-155.3" font-family="Times,serif" font-size="14.00" fill="#000000">HistoryEntry</text>
<polyline fill="none" stroke="#000000" points="276.0996,-148.5 420.7998,-148.5 "/>
<text text-anchor="start" x="284.0996" y="-133.3" font-family="Times,serif" font-size="14.00" fill="#000000">sign_in_time :datetime</text>
<text text-anchor="start" x="284.0996" y="-119.3" font-family="Times,serif" font-size="14.00" fill="#000000">student_id :integer</text>
<text text-anchor="start" x="284.0996" y="-105.3" font-family="Times,serif" font-size="14.00" fill="#000000">course :varchar</text>
<text text-anchor="start" x="284.0996" y="-91.3" font-family="Times,serif" font-size="14.00" fill="#000000">tutor_sid :integer</text>
<text text-anchor="start" x="284.0996" y="-77.3" font-family="Times,serif" font-size="14.00" fill="#000000">start_time :datetime</text>
<text text-anchor="start" x="284.0996" y="-63.3" font-family="Times,serif" font-size="14.00" fill="#000000">end_time :datetime</text>
<text text-anchor="start" x="284.0996" y="-49.3" font-family="Times,serif" font-size="14.00" fill="#000000">tutor_notes :varchar</text>
<text text-anchor="start" x="284.0996" y="-35.3" font-family="Times,serif" font-size="14.00" fill="#000000">status :varchar</text>
<text text-anchor="start" x="284.0996" y="-21.3" font-family="Times,serif" font-size="14.00" fill="#000000">meet_type :varchar</text>
<text text-anchor="start" x="284.0996" y="-7.3" font-family="Times,serif" font-size="14.00" fill="#000000">id :INTEGER</text>
</g>
<!-- Student -->
<g id="node3" class="node">
<title>Student</title>
<path fill="none" stroke="#000000" d="M236.9512,-242.5C236.9512,-242.5 401.9482,-242.5 401.9482,-242.5 407.9482,-242.5 413.9482,-248.5 413.9482,-254.5 413.9482,-254.5 413.9482,-414.5 413.9482,-414.5 413.9482,-420.5 407.9482,-426.5 401.9482,-426.5 401.9482,-426.5 236.9512,-426.5 236.9512,-426.5 230.9512,-426.5 224.9512,-420.5 224.9512,-414.5 224.9512,-414.5 224.9512,-254.5 224.9512,-254.5 224.9512,-248.5 230.9512,-242.5 236.9512,-242.5"/>
<text text-anchor="middle" x="319.4497" y="-411.3" font-family="Times,serif" font-size="14.00" fill="#000000">Student</text>
<polyline fill="none" stroke="#000000" points="224.9512,-404.5 413.9482,-404.5 "/>
<text text-anchor="start" x="232.9512" y="-389.3" font-family="Times,serif" font-size="14.00" fill="#000000">concurrent_institution :varchar</text>
<text text-anchor="start" x="232.9512" y="-375.3" font-family="Times,serif" font-size="14.00" fill="#000000">first_name :varchar</text>
<text text-anchor="start" x="232.9512" y="-361.3" font-family="Times,serif" font-size="14.00" fill="#000000">last_name :varchar</text>
<text text-anchor="start" x="232.9512" y="-347.3" font-family="Times,serif" font-size="14.00" fill="#000000">sid :integer</text>
<text text-anchor="start" x="232.9512" y="-333.3" font-family="Times,serif" font-size="14.00" fill="#000000">email :varchar</text>
<text text-anchor="start" x="232.9512" y="-319.3" font-family="Times,serif" font-size="14.00" fill="#000000">transfer_student :boolean</text>
<text text-anchor="start" x="232.9512" y="-305.3" font-family="Times,serif" font-size="14.00" fill="#000000">concurrency_student :boolean</text>
<text text-anchor="start" x="232.9512" y="-291.3" font-family="Times,serif" font-size="14.00" fill="#000000">created_at :datetime</text>
<text text-anchor="start" x="232.9512" y="-277.3" font-family="Times,serif" font-size="14.00" fill="#000000">updated_at :datetime</text>
<text text-anchor="start" x="232.9512" y="-263.3" font-family="Times,serif" font-size="14.00" fill="#000000">domestic_student :boolean</text>
<text text-anchor="start" x="232.9512" y="-249.3" font-family="Times,serif" font-size="14.00" fill="#000000">id :INTEGER</text>
</g>
<!-- Student&#45;&gt;HistoryEntry -->
<g id="edge1" class="edge">
<title>Student&#45;&gt;HistoryEntry</title>
<path fill="none" stroke="#1af954" d="M331.1049,-234.4265C333.1665,-216.7245 335.3081,-198.3367 337.3538,-180.7716"/>
<ellipse fill="none" stroke="#1af954" cx="330.6286" cy="-238.5159" rx="4" ry="4"/>
<polygon fill="#1af954" stroke="#1af954" points="337.389,-180.4689 343.0157,-171.0566 337.9675,-175.5024 338.5459,-170.536 338.5459,-170.536 338.5459,-170.536 337.9675,-175.5024 334.0761,-170.0154 337.389,-180.4689 337.389,-180.4689"/>
</g>
<!-- StudentRequest -->
<g id="node4" class="node">
<title>StudentRequest</title>
<path fill="none" stroke="#000000" d="M464.9443,-.5C464.9443,-.5 573.9551,-.5 573.9551,-.5 579.9551,-.5 585.9551,-6.5 585.9551,-12.5 585.9551,-12.5 585.9551,-158.5 585.9551,-158.5 585.9551,-164.5 579.9551,-170.5 573.9551,-170.5 573.9551,-170.5 464.9443,-170.5 464.9443,-170.5 458.9443,-170.5 452.9443,-164.5 452.9443,-158.5 452.9443,-158.5 452.9443,-12.5 452.9443,-12.5 452.9443,-6.5 458.9443,-.5 464.9443,-.5"/>
<text text-anchor="middle" x="519.4497" y="-155.3" font-family="Times,serif" font-size="14.00" fill="#000000">StudentRequest</text>
<polyline fill="none" stroke="#000000" points="452.9443,-148.5 585.9551,-148.5 "/>
<text text-anchor="start" x="460.9443" y="-133.3" font-family="Times,serif" font-size="14.00" fill="#000000">start_time :datetime</text>
<text text-anchor="start" x="460.9443" y="-119.3" font-family="Times,serif" font-size="14.00" fill="#000000">student_id :integer</text>
<text text-anchor="start" x="460.9443" y="-105.3" font-family="Times,serif" font-size="14.00" fill="#000000">course :varchar</text>
<text text-anchor="start" x="460.9443" y="-91.3" font-family="Times,serif" font-size="14.00" fill="#000000">meet_type :varchar</text>
<text text-anchor="start" x="460.9443" y="-77.3" font-family="Times,serif" font-size="14.00" fill="#000000">status :varchar</text>
<text text-anchor="start" x="460.9443" y="-63.3" font-family="Times,serif" font-size="14.00" fill="#000000">wait_time :time</text>
<text text-anchor="start" x="460.9443" y="-49.3" font-family="Times,serif" font-size="14.00" fill="#000000">tutor_id :integer</text>
<text text-anchor="start" x="460.9443" y="-35.3" font-family="Times,serif" font-size="14.00" fill="#000000">created_at :datetime</text>
<text text-anchor="start" x="460.9443" y="-21.3" font-family="Times,serif" font-size="14.00" fill="#000000">updated_at :datetime</text>
<text text-anchor="start" x="460.9443" y="-7.3" font-family="Times,serif" font-size="14.00" fill="#000000">id :INTEGER</text>
</g>
<!-- Student&#45;&gt;StudentRequest -->
<g id="edge2" class="edge">
<title>Student&#45;&gt;StudentRequest</title>
<path fill="none" stroke="#fc1d75" d="M398.4039,-236.2021C414.2248,-216.505 430.7818,-195.8915 446.3923,-176.4564"/>
<ellipse fill="none" stroke="#fc1d75" cx="395.859" cy="-239.3704" rx="4" ry="4"/>
<polygon fill="#fc1d75" stroke="#fc1d75" points="446.5241,-176.2923 456.2948,-171.3139 449.6552,-172.3941 452.7864,-168.4959 452.7864,-168.4959 452.7864,-168.4959 449.6552,-172.3941 449.278,-165.6778 446.5241,-176.2923 446.5241,-176.2923"/>
</g>
<!-- Tutor -->
<g id="node5" class="node">
<title>Tutor</title>
<path fill="none" stroke="#000000" d="M444.1719,-207.5C444.1719,-207.5 624.7275,-207.5 624.7275,-207.5 630.7275,-207.5 636.7275,-213.5 636.7275,-219.5 636.7275,-219.5 636.7275,-449.5 636.7275,-449.5 636.7275,-455.5 630.7275,-461.5 624.7275,-461.5 624.7275,-461.5 444.1719,-461.5 444.1719,-461.5 438.1719,-461.5 432.1719,-455.5 432.1719,-449.5 432.1719,-449.5 432.1719,-219.5 432.1719,-219.5 432.1719,-213.5 438.1719,-207.5 444.1719,-207.5"/>
<text text-anchor="middle" x="534.4497" y="-446.3" font-family="Times,serif" font-size="14.00" fill="#000000">Tutor</text>
<polyline fill="none" stroke="#000000" points="432.1719,-439.5 636.7275,-439.5 "/>
<text text-anchor="start" x="440.1719" y="-424.3" font-family="Times,serif" font-size="14.00" fill="#000000">last_sign_in_ip :varchar</text>
<text text-anchor="start" x="440.1719" y="-410.3" font-family="Times,serif" font-size="14.00" fill="#000000">first_name :varchar</text>
<text text-anchor="start" x="440.1719" y="-396.3" font-family="Times,serif" font-size="14.00" fill="#000000">last_name :varchar</text>
<text text-anchor="start" x="440.1719" y="-382.3" font-family="Times,serif" font-size="14.00" fill="#000000">sid :integer</text>
<text text-anchor="start" x="440.1719" y="-368.3" font-family="Times,serif" font-size="14.00" fill="#000000">created_at :datetime</text>
<text text-anchor="start" x="440.1719" y="-354.3" font-family="Times,serif" font-size="14.00" fill="#000000">updated_at :datetime</text>
<text text-anchor="start" x="440.1719" y="-340.3" font-family="Times,serif" font-size="14.00" fill="#000000">email :varchar</text>
<text text-anchor="start" x="440.1719" y="-326.3" font-family="Times,serif" font-size="14.00" fill="#000000">encrypted_password :varchar</text>
<text text-anchor="start" x="440.1719" y="-312.3" font-family="Times,serif" font-size="14.00" fill="#000000">reset_password_token :varchar</text>
<text text-anchor="start" x="440.1719" y="-298.3" font-family="Times,serif" font-size="14.00" fill="#000000">reset_password_sent_at :datetime</text>
<text text-anchor="start" x="440.1719" y="-284.3" font-family="Times,serif" font-size="14.00" fill="#000000">remember_created_at :datetime</text>
<text text-anchor="start" x="440.1719" y="-270.3" font-family="Times,serif" font-size="14.00" fill="#000000">sign_in_count :integer</text>
<text text-anchor="start" x="440.1719" y="-256.3" font-family="Times,serif" font-size="14.00" fill="#000000">current_sign_in_at :datetime</text>
<text text-anchor="start" x="440.1719" y="-242.3" font-family="Times,serif" font-size="14.00" fill="#000000">last_sign_in_at :datetime</text>
<text text-anchor="start" x="440.1719" y="-228.3" font-family="Times,serif" font-size="14.00" fill="#000000">current_sign_in_ip :varchar</text>
<text text-anchor="start" x="440.1719" y="-214.3" font-family="Times,serif" font-size="14.00" fill="#000000">id :INTEGER</text>
</g>
<!-- Tutor&#45;&gt;HistoryEntry -->
<g id="edge3" class="edge">
<title>Tutor&#45;&gt;HistoryEntry</title>
<path fill="none" stroke="#0764b5" d="M434.744,-201.023C429.2117,-193.6169 423.7112,-186.2533 418.3214,-179.0379"/>
<ellipse fill="none" stroke="#0764b5" cx="437.1488" cy="-204.2423" rx="4" ry="4"/>
<polygon fill="#0764b5" stroke="#0764b5" points="418.0344,-178.6536 415.655,-167.949 415.0421,-174.6478 412.0498,-170.642 412.0498,-170.642 412.0498,-170.642 415.0421,-174.6478 408.4446,-173.3351 418.0344,-178.6536 418.0344,-178.6536"/>
</g>
<!-- Tutor&#45;&gt;StudentRequest -->
<g id="edge4" class="edge">
<title>Tutor&#45;&gt;StudentRequest</title>
<path fill="none" stroke="#6e386b" d="M526.3036,-199.2741C525.9288,-193.0528 525.5562,-186.8675 525.1895,-180.781"/>
<ellipse fill="none" stroke="#6e386b" cx="526.5553" cy="-203.4542" rx="4" ry="4"/>
<polygon fill="#6e386b" stroke="#6e386b" points="525.1802,-180.624 529.0706,-170.3714 524.8795,-175.633 524.5787,-170.642 524.5787,-170.642 524.5787,-170.642 524.8795,-175.633 520.0869,-170.9127 525.1802,-180.624 525.1802,-180.624"/>
</g>
<!-- TutorWorkDay -->
<g id="node6" class="node">
<title>TutorWorkDay</title>
<path fill="none" stroke="#000000" d="M666.8823,-270.5C666.8823,-270.5 786.0171,-270.5 786.0171,-270.5 792.0171,-270.5 798.0171,-276.5 798.0171,-282.5 798.0171,-282.5 798.0171,-386.5 798.0171,-386.5 798.0171,-392.5 792.0171,-398.5 786.0171,-398.5 786.0171,-398.5 666.8823,-398.5 666.8823,-398.5 660.8823,-398.5 654.8823,-392.5 654.8823,-386.5 654.8823,-386.5 654.8823,-282.5 654.8823,-282.5 654.8823,-276.5 660.8823,-270.5 666.8823,-270.5"/>
<text text-anchor="middle" x="726.4497" y="-383.3" font-family="Times,serif" font-size="14.00" fill="#000000">TutorWorkDay</text>
<polyline fill="none" stroke="#000000" points="654.8823,-376.5 798.0171,-376.5 "/>
<text text-anchor="start" x="662.8823" y="-361.3" font-family="Times,serif" font-size="14.00" fill="#000000">end_time :integer</text>
<text text-anchor="start" x="662.8823" y="-347.3" font-family="Times,serif" font-size="14.00" fill="#000000">tutor_id :integer</text>
<text text-anchor="start" x="662.8823" y="-333.3" font-family="Times,serif" font-size="14.00" fill="#000000">start_time :integer</text>
<text text-anchor="start" x="662.8823" y="-319.3" font-family="Times,serif" font-size="14.00" fill="#000000">id :INTEGER</text>
<text text-anchor="start" x="662.8823" y="-305.3" font-family="Times,serif" font-size="14.00" fill="#000000">num_students :varchar</text>
<text text-anchor="start" x="662.8823" y="-291.3" font-family="Times,serif" font-size="14.00" fill="#000000">created_at :datetime</text>
<text text-anchor="start" x="662.8823" y="-277.3" font-family="Times,serif" font-size="14.00" fill="#000000">updated_at :datetime</text>
</g>
</g>
</svg>
