<?xml version="1.0" encoding="UTF-8" standalone="no"?>
<!DOCTYPE svg PUBLIC "-//W3C//DTD SVG 1.1//EN"
 "http://www.w3.org/Graphics/SVG/1.1/DTD/svg11.dtd">
<!-- Generated by graphviz version 2.40.1 (20161225.0304)
 -->
<!-- Title: models_diagram Pages: 1 -->
<svg width="557pt" height="153pt"
 viewBox="0.00 0.00 557.06 153.00" xmlns="http://www.w3.org/2000/svg" xmlns:xlink="http://www.w3.org/1999/xlink">
<g id="graph0" class="graph" transform="scale(1 1) rotate(0) translate(4 149)">
<title>models_diagram</title>
<polygon fill="transparent" stroke="transparent" points="-4,4 -4,-149 553.0621,-149 553.0621,4 -4,4"/>
<!-- _diagram_info -->
<g id="node1" class="node">
<title>_diagram_info</title>
<text text-anchor="start" x="8" y="-130.6" font-family="Times,serif" font-size="13.00" fill="#000000">Models diagram</text>
<text text-anchor="start" x="8" y="-117.6" font-family="Times,serif" font-size="13.00" fill="#000000">Date: Nov 29 2017 &#45; 00:14</text>
<text text-anchor="start" x="8" y="-104.6" font-family="Times,serif" font-size="13.00" fill="#000000">Migration version: 20171128235740</text>
<text text-anchor="start" x="8" y="-91.6" font-family="Times,serif" font-size="13.00" fill="#000000">Generated by RailRoady 1.5.3</text>
<text text-anchor="start" x="8" y="-78.6" font-family="Times,serif" font-size="13.00" fill="#000000">http://railroady.prestonlee.com</text>
</g>
<!-- HistoryEntry -->
<g id="node2" class="node">
<title>HistoryEntry</title>
<ellipse fill="none" stroke="#000000" cx="248.4497" cy="-18" rx="56.07" ry="18"/>
<text text-anchor="middle" x="248.4497" y="-13.8" font-family="Times,serif" font-size="14.00" fill="#000000">HistoryEntry</text>
</g>
<!-- Student -->
<g id="node3" class="node">
<title>Student</title>
<ellipse fill="none" stroke="#000000" cx="262.4497" cy="-108.5" rx="37.2594" ry="18"/>
<text text-anchor="middle" x="262.4497" y="-104.3" font-family="Times,serif" font-size="14.00" fill="#000000">Student</text>
</g>
<!-- Student&#45;&gt;HistoryEntry -->
<g id="edge1" class="edge">
<title>Student&#45;&gt;HistoryEntry</title>
<path fill="none" stroke="#8d28aa" d="M258.3454,-81.9687C256.6061,-70.7255 254.5773,-57.6105 252.811,-46.1929"/>
<ellipse fill="none" stroke="#8d28aa" cx="259.005" cy="-86.233" rx="4" ry="4"/>
<polygon fill="#8d28aa" stroke="#8d28aa" points="252.8075,-46.1692 255.7257,-35.5988 252.043,-41.228 251.2786,-36.2868 251.2786,-36.2868 251.2786,-36.2868 252.043,-41.228 246.8315,-36.9748 252.8075,-46.1692 252.8075,-46.1692"/>
</g>
<!-- StudentRequest -->
<g id="node4" class="node">
<title>StudentRequest</title>
<ellipse fill="none" stroke="#000000" cx="388.4497" cy="-18" rx="65.7408" ry="18"/>
<text text-anchor="middle" x="388.4497" y="-13.8" font-family="Times,serif" font-size="14.00" fill="#000000">StudentRequest</text>
</g>
<!-- Student&#45;&gt;StudentRequest -->
<g id="edge2" class="edge">
<title>Student&#45;&gt;StudentRequest</title>
<path fill="none" stroke="#9c703e" d="M289.8724,-88.8036C309.4732,-74.7252 335.9095,-55.7372 356.471,-40.9688"/>
<ellipse fill="none" stroke="#9c703e" cx="286.5049" cy="-91.2223" rx="4" ry="4"/>
<polygon fill="#9c703e" stroke="#9c703e" points="356.4799,-40.9625 367.2271,-38.7837 360.5409,-38.0456 364.6019,-35.1288 364.6019,-35.1288 364.6019,-35.1288 360.5409,-38.0456 361.9768,-31.4738 356.4799,-40.9625 356.4799,-40.9625"/>
</g>
<!-- Tutor -->
<g id="node5" class="node">
<title>Tutor</title>
<ellipse fill="none" stroke="#000000" cx="374.4497" cy="-108.5" rx="29.3953" ry="18"/>
<text text-anchor="middle" x="374.4497" y="-104.3" font-family="Times,serif" font-size="14.00" fill="#000000">Tutor</text>
</g>
<!-- Tutor&#45;&gt;HistoryEntry -->
<g id="edge3" class="edge">
<title>Tutor&#45;&gt;HistoryEntry</title>
<path fill="none" stroke="#2b8df3" d="M348.6351,-89.9586C328.7522,-75.6776 301.1734,-55.869 279.9841,-40.6497"/>
<ellipse fill="none" stroke="#2b8df3" cx="352.0642" cy="-92.4215" rx="4" ry="4"/>
<polygon fill="#2b8df3" stroke="#2b8df3" points="279.7486,-40.4806 274.2517,-30.9919 275.6876,-37.5637 271.6265,-34.6469 271.6265,-34.6469 271.6265,-34.6469 275.6876,-37.5637 269.0014,-38.3018 279.7486,-40.4806 279.7486,-40.4806"/>
</g>
<!-- Tutor&#45;&gt;StudentRequest -->
<g id="edge4" class="edge">
<title>Tutor&#45;&gt;StudentRequest</title>
<path fill="none" stroke="#92ebf4" d="M378.554,-81.9687C380.2933,-70.7255 382.3221,-57.6105 384.0884,-46.1929"/>
<ellipse fill="none" stroke="#92ebf4" cx="377.8944" cy="-86.233" rx="4" ry="4"/>
<polygon fill="#92ebf4" stroke="#92ebf4" points="384.092,-46.1692 390.0679,-36.9748 384.8564,-41.228 385.6208,-36.2868 385.6208,-36.2868 385.6208,-36.2868 384.8564,-41.228 381.1737,-35.5988 384.092,-46.1692 384.092,-46.1692"/>
</g>
<!-- TutorWorkDay -->
<g id="node6" class="node">
<title>TutorWorkDay</title>
<ellipse fill="none" stroke="#000000" cx="485.4497" cy="-108.5" rx="63.725" ry="18"/>
<text text-anchor="middle" x="485.4497" y="-104.3" font-family="Times,serif" font-size="14.00" fill="#000000">TutorWorkDay</text>
</g>
</g>
</svg>
